<svg width="329" height="121" viewBox="0 0 329 121" fill="none" xmlns="http://www.w3.org/2000/svg">
<path d="M78.288 25.072V33.84H66.384V70H55.44V33.84H43.536V25.072H78.288ZM81.6045 52.08C81.6045 48.4107 82.2872 45.1893 83.6525 42.416C85.0605 39.6427 86.9592 37.5093 89.3485 36.016C91.7378 34.5227 94.4045 33.776 97.3485 33.776C99.8658 33.776 102.063 34.288 103.941 35.312C105.861 36.336 107.333 37.68 108.357 39.344V34.288H119.301V70H108.357V64.944C107.29 66.608 105.797 67.952 103.877 68.976C101.999 70 99.8018 70.512 97.2845 70.512C94.3832 70.512 91.7378 69.7653 89.3485 68.272C86.9592 66.736 85.0605 64.5813 83.6525 61.808C82.2872 58.992 81.6045 55.7493 81.6045 52.08ZM108.357 52.144C108.357 49.4133 107.589 47.2587 106.053 45.68C104.559 44.1013 102.725 43.312 100.549 43.312C98.3725 43.312 96.5165 44.1013 94.9805 45.68C93.4872 47.216 92.7405 49.3493 92.7405 52.08C92.7405 54.8107 93.4872 56.9867 94.9805 58.608C96.5165 60.1867 98.3725 60.976 100.549 60.976C102.725 60.976 104.559 60.1867 106.053 58.608C107.589 57.0293 108.357 54.8747 108.357 52.144ZM141.746 70.512C138.631 70.512 135.858 69.9787 133.426 68.912C130.994 67.8453 129.074 66.3947 127.666 64.56C126.258 62.6827 125.469 60.592 125.298 58.288H136.114C136.242 59.5253 136.818 60.528 137.842 61.296C138.866 62.064 140.125 62.448 141.618 62.448C142.983 62.448 144.029 62.192 144.754 61.68C145.522 61.1253 145.906 60.4213 145.906 59.568C145.906 58.544 145.373 57.7973 144.306 57.328C143.239 56.816 141.511 56.2613 139.122 55.664C136.562 55.0667 134.429 54.448 132.722 53.808C131.015 53.1253 129.543 52.08 128.306 50.672C127.069 49.2213 126.45 47.28 126.45 44.848C126.45 42.8 127.005 40.944 128.114 39.28C129.266 37.5733 130.93 36.2293 133.106 35.248C135.325 34.2667 137.949 33.776 140.978 33.776C145.458 33.776 148.978 34.8853 151.538 37.104C154.141 39.3227 155.634 42.2667 156.018 45.936H145.906C145.735 44.6987 145.181 43.7173 144.242 42.992C143.346 42.2667 142.151 41.904 140.658 41.904C139.378 41.904 138.397 42.16 137.714 42.672C137.031 43.1413 136.69 43.8027 136.69 44.656C136.69 45.68 137.223 46.448 138.29 46.96C139.399 47.472 141.106 47.984 143.41 48.496C146.055 49.1787 148.21 49.8613 149.874 50.544C151.538 51.184 152.989 52.2507 154.226 53.744C155.506 55.1947 156.167 57.1573 156.21 59.632C156.21 61.7227 155.613 63.6 154.418 65.264C153.266 66.8853 151.581 68.1653 149.362 69.104C147.186 70.0427 144.647 70.512 141.746 70.512ZM184.73 70L173.85 55.024V70H162.906V22.64H173.85V48.816L184.666 34.288H198.17L183.322 52.208L198.298 70H184.73ZM224.42 33.904C228.516 33.904 231.801 35.2693 234.276 38C236.751 40.688 237.988 44.4 237.988 49.136V70H227.108V50.608C227.108 48.2187 226.489 46.3627 225.252 45.04C224.015 43.7173 222.351 43.056 220.26 43.056C218.169 43.056 216.505 43.7173 215.268 45.04C214.031 46.3627 213.412 48.2187 213.412 50.608V70H202.468V22.64H213.412V39.088C214.521 37.5093 216.036 36.2507 217.956 35.312C219.876 34.3733 222.031 33.904 224.42 33.904ZM280.857 34.288V70H269.913V65.136C268.804 66.7147 267.289 67.9947 265.369 68.976C263.492 69.9147 261.401 70.384 259.097 70.384C256.366 70.384 253.956 69.7867 251.865 68.592C249.774 67.3547 248.153 65.584 247.001 63.28C245.849 60.976 245.273 58.2667 245.273 55.152V34.288H256.153V53.68C256.153 56.0693 256.772 57.9253 258.009 59.248C259.246 60.5707 260.91 61.232 263.001 61.232C265.134 61.232 266.82 60.5707 268.057 59.248C269.294 57.9253 269.913 56.0693 269.913 53.68V34.288H280.857ZM299.662 39.344C300.686 37.68 302.158 36.336 304.078 35.312C305.998 34.288 308.195 33.776 310.67 33.776C313.614 33.776 316.281 34.5227 318.67 36.016C321.059 37.5093 322.937 39.6427 324.302 42.416C325.71 45.1893 326.414 48.4107 326.414 52.08C326.414 55.7493 325.71 58.992 324.302 61.808C322.937 64.5813 321.059 66.736 318.67 68.272C316.281 69.7653 313.614 70.512 310.67 70.512C308.153 70.512 305.955 70.0213 304.078 69.04C302.201 68.016 300.729 66.672 299.662 65.008V70H288.718V22.64H299.662V39.344ZM315.278 52.08C315.278 49.3493 314.51 47.216 312.974 45.68C311.481 44.1013 309.625 43.312 307.406 43.312C305.23 43.312 303.374 44.1013 301.838 45.68C300.345 47.2587 299.598 49.4133 299.598 52.144C299.598 54.8747 300.345 57.0293 301.838 58.608C303.374 60.1867 305.23 60.976 307.406 60.976C309.582 60.976 311.438 60.1867 312.974 58.608C314.51 56.9867 315.278 54.8107 315.278 52.08Z" fill="#D8D8D8"/>
<g clip-path="url(#clip0_31_2)">
<mask id="mask0_31_2" style="mask-type:luminance" maskUnits="userSpaceOnUse" x="0" y="37" width="84" height="84">
<path d="M84 37H0V121H84V37Z" fill="white"/>
</mask>
<g mask="url(#mask0_31_2)">
<path fill-rule="evenodd" clip-rule="evenodd" d="M42 46.24C42 41.1369 37.8631 37 32.76 37H9.24C4.13689 37 0 41.1369 0 46.24V70.0621C0 75.1653 4.13689 79.302 9.24 79.302H32.76C37.8631 79.302 42 83.439 42 88.542V111.76C42 116.863 46.137 121 51.24 121H74.76C79.863 121 84 116.863 84 111.76V87.9376C84 82.8346 79.863 78.6978 74.76 78.6978H51.24C46.137 78.6978 42 74.5609 42 69.4578V46.24Z" fill="url(#paint0_linear_31_2)"/>
</g>
</g>
<defs>
<linearGradient id="paint0_linear_31_2" x1="5.88" y1="47.92" x2="75.18" y2="112.39" gradientUnits="userSpaceOnUse">
<stop stop-color="#4059B3"/>
<stop offset="0.5" stop-color="#777777"/>
<stop offset="1" stop-color="#4059B3"/>
</linearGradient>
<clipPath id="clip0_31_2">
<rect width="84" height="84" fill="white" transform="translate(0 37)"/>
</clipPath>
</defs>
</svg>
